<?xml version="1.0" encoding="utf-8"?>
<!-- Generator: Adobe Illustrator 22.0.1, SVG Export Plug-In . SVG Version: 6.00 Build 0)  -->
<svg version="1.1" id="Layer_1" xmlns="http://www.w3.org/2000/svg" xmlns:xlink="http://www.w3.org/1999/xlink" x="0px" y="0px"
	 viewBox="0 0 500 500" style="enable-background:new 0 0 500 500;" xml:space="preserve">
<style type="text/css">
	.st0{fill:#FFFFFF;stroke:#000000;stroke-width:9.6325;stroke-miterlimit:10;}
	.st1{fill:#040404;}
	.st2{fill:#0A0A0A;}
	.st3{fill:#141414;}
	.st4{fill:#080808;}
	.st5{fill:#FFFFFF;}
</style>
<path class="st0" d="M478.3,222.4c10.6-24.4,9.6-47.8-10.2-63.2c-12.4-9.7-19.6-19.6-20.6-35.7c-0.9-12.9-11.9-20.5-21.8-28
	c-28.7-21.9-63.5-24.5-97-29.2c-56.8-8-114.3-1.3-171.2-4.9c-38.3-2.4-61.8,15.3-77.8,45.6c-13.8,26.2-29.2,49.8-52.3,69
	c-21.3,17.8-19.3,59.6,10.9,83.5c2,1.6,3.7,3.7,5.6,5.6h1.9c27.1,61.8,75.6,99.1,137.7,121.1c4.6,1.6,8.7,4.9,13.1,7.3
	c39,21.6,82.2,30,124.5,41.8c25.2,7,49.8,6.5,74.7,6.3c25.8-0.2,46.5-11.5,61.6-33.1c5.9-8.4,6-16.3,6-26.2c0-39.7-5.4-79.4-1-119.2
	C464.2,247.6,472.6,235.5,478.3,222.4z"/>
<path class="st1" d="M424.1,329.6c-6,10.2-14.6,17.6-25.7,19.9c-65.2,13.2-130.2,15.1-194.3-6.6c-11.7-1.5-21.4-7.1-29.8-15.2
	c-18.9-11.3-36.8-23.8-49.2-42.6c-15.3-18.2-32.5-35.2-36.9-60.1c-5.9-0.4-11.8-0.9-17.7-1.3c-0.5-0.6-1-1.3-1.5-2
	c-4.7-1.6-3.7-4.5-0.5-7.4c3.7-3.3,8.4-5.1,12.3-8.3c6.1-5,6-17.6,15.6-16.6c9.2,0.9,15.1,9.9,21.6,16.5
	c36.5,21.1,77.9,29.2,116.9,43.8c18.1,1.4,35,9.7,53.6,8.2c28.6,1.1,57.1-0.1,84.5-9.3c7-2.3,13.7-4.9,21-6
	c16.9-6.8,17.3-23.4,20.5-39.6C437.4,233.3,441.4,300,424.1,329.6z"/>
<path class="st1" d="M396.5,159.6c-1,3.9-5,5.2-8.8,5.7c-14.7,2.1-29.5,3.8-44.1,6.4c-7.5,1.3-17.7,1.4-17.9,12.3
	c-0.2,8.6-0.4,17.1,10.9,22.6c8.9,4.3,19.4,9.9,23.3,21.2c-0.9,1.6-2,2.9-3.4,4c-8.6,4.4-16.5,9.7-23.8,16.1
	c-5.6,5-11.8,11-20.7,6.6c-5.6-1-12.2-2.3-10.7-9.6c1.2-5.9,7.3-1.7,11.1-2.2c11.2-1.4,17.7-8.7,21.4-17.8
	c3.9-9.6-4.6-12.4-11.2-15.6c-4.3-2.1-6.7-7-6.4-10.5c1.3-14.5-5.5-24.1-20.1-32.1c27.6-4.9,46.3-27,73.9-21.7
	c7.3,1.4,14.9,0.6,21,5.9C393.6,153.2,397.4,155.6,396.5,159.6z"/>
<path class="st1" d="M208.8,132.8c15-1.4,31.9,6.8,47.4,18.8c5.7,4.4,11.1,10.1,6,17c-4.7,6.5-11,16.1-20.7,10.9
	c-26.9-14.4-54.6-17.9-84.1-11.1c-4.8,1.1-10.4,0.4-13-4.8c-3.1-6.3,1.6-10.5,5.5-14.3C165,134.8,184.2,133.9,208.8,132.8z"/>
<path class="st2" d="M62.1,224.1c-0.6,5.3,3.9,10.6-0.6,17.5c-13.6-9.7-15.4-23.4-12.7-37c3.3-16.5,12.3-29.8,30.2-33.7
	c15.7-3.4,30.5-0.3,44.8,6.7c21.8,10.6,43.4,14.7,63.5-3.9c2.9-2.7,7-4.8,9.8-1.5c4,4.6-1.2,7.6-3.9,10.4
	c-12.2,12.3-27.3,16.3-44.1,14.1c-6.1-0.8-12.2-2-18.2-3c-6.9-2.4-14.2-1.2-21.4-4.1c-26.5-10.9-42-1.5-46.5,27.2
	C62.5,219.2,62.4,221.7,62.1,224.1z"/>
<path class="st1" d="M445.7,194.8c-3.6,8.6-9.8,1.6-14.7-1.4c-7.4,0.1-14.7,0.1-22.2,0.2c-8.1,13.7-24.7,17.8-36.3,8.9
	c-3-2.3-6.3-5-3.9-9.1c1.8-3.1,5.3-2.7,8.2-1.1c8.5,4.8,14.4,0.9,21.6-4.1c11-7.7,23.3-8.5,36.2-2.2
	C439.5,188.4,448,189.3,445.7,194.8z"/>
<path class="st3" d="M257.6,209.9c-0.7,7.3-5.2,6.6-8.5,7.3c-9.3,2.1-15.9,5.4-7.5,15.9c2.3,2.9,5,6.4,0.5,9.2
	c-4.6,2.8-8.5-0.3-11.1-3.8c-5.7-7.7-6.3-17-0.8-24.2C237.6,204.8,247.8,206.6,257.6,209.9z"/>
<path class="st4" d="M287.5,231.8c-10.8,6.4-21.4,0.4-30.1,6c-3.4,2.2-5.3-1.6-5.7-4.7c-0.5-4.4,2-7,6.1-7.6
	C267.6,224,277.2,224,287.5,231.8z"/>
<g>
	<path class="st5" d="M208,334.9c-0.2-2.2-0.4-4.5-0.6-6.7c0.6-8.9,10.6-14.2,8.3-24.8c-1.4-6.7,4.7-4.8,8.9-3.5
		c10.5,3.3,21,6.9,31.6,9.5c7.8,1.9,10.9,5.8,11.2,14c0.8,22.4-1.1,24.6-23.6,20C231.8,341,220,337.8,208,334.9z"/>
	<path class="st5" d="M203.5,315.9c-6.2,8.7-12.2,18.6-23.2,4.9c-7.4-10.7-23.8-11.8-28-26c7.2-29,23.5-9.2,36.6-6.8
		C204.8,291.5,210.6,300.3,203.5,315.9z"/>
	<path class="st5" d="M241.2,287.4c-20.9-3.6-22-5.6-14.8-26.9c6.2-1.4,12.4-2.3,18.5,0.6c7,1.9,14,4,21.1,5.5
		c7.9,1.7,10.8,6.7,11.4,14.2c0.8,9.7-7.2,7.8-12.3,9.9C257.5,286.9,248.8,291.6,241.2,287.4z"/>
	<path class="st5" d="M204.6,275.9c-8.5-3.5-16.7-8.1-25.5-10.3c-8.6-2.2-14.2-7.2-19-13.7c-2.6-3.4-6.4-7.5-3.9-11.6
		c2.8-4.8,7.9-1.5,11.7-0.4c11.9,3.3,23.5,7.8,35.6,10.4c10.9,2.4,13.9,8.5,12,18.5C212.6,272.3,210.7,277.2,204.6,275.9z"/>
	<path class="st5" d="M294.1,319c4.3,4.5,21.9-9.2,21.5,11.2c-0.3,15.8-8.2,20.4-23.7,19.6c-16.1-0.8-15.2-9.8-14.8-21
		C277.5,318.7,279.9,313.1,294.1,319z"/>
	<path class="st5" d="M304.9,290c-8.1-0.9-17.9,2-18.1-10.8c-0.2-8.5,4.8-11.3,12-9.1c8.4,2.6,22.7-3.1,22.7,12.2
		C321.5,293.8,310.6,288.2,304.9,290z"/>
	<path class="st5" d="M340.3,321.7c3.9,1.1,13-1.5,11.4,6.3c-2.1,10-7.2,20.1-19.9,21.5c-4.8,0.5-9.5-1.3-7.9-7.1
		C326.5,333.7,324.1,320.8,340.3,321.7z"/>
	<path class="st5" d="M347.1,288.9c-6.7,0.2-14.6,2.3-15.6-7.9c-0.9-9.4,6.9-8.4,12.7-9.6c3.6-0.7,7.3-1.4,10.9-2.1
		c8.5-1.7,12.5,1.9,13.7,10.4c1.3,9.6-5.9,7.1-10.6,8.1C354.6,288.5,350.9,288.5,347.1,288.9z"/>
	<path class="st5" d="M388.6,257.5c6.6,1.6,9,6,8.6,12.3c-0.5,7.8-2.2,16-11.6,16c-9,0-6.8-10.7-9.3-15.8
		C372.4,261.8,384.8,262.4,388.6,257.5z"/>
	<path class="st5" d="M365.2,346.1c-5.8,1.1-8.4-2.6-7.5-6c2.1-7.3,1.8-17.1,12.3-18.7c4.7-0.7,9.4,2.2,7.4,7.1
		C374.6,335,375.8,345.5,365.2,346.1z"/>
	<path class="st5" d="M385.8,339.7c1.3-9.1,5.9-15.9,13-24.6C400,328.1,410.2,342.7,385.8,339.7z"/>
	<path class="st5" d="M406.7,250.7c8.1,7.7,11.5,14.8,7.8,23.5c-0.5,1.2-4.1,1.1-6.3,1.6C408,267.8,404.3,259.8,406.7,250.7z"/>
	<path class="st5" d="M415.5,314.1c3.3,6.7,1.1,10.8-4.4,15.1C408.9,322.7,411.3,318.7,415.5,314.1z"/>
	<path class="st5" d="M107.1,212.5c7.6,4,15,8.4,22.9,11.8c12.5,5.4,18.1,13.9,13.9,29.3c-17.7-6.2-37.3-8.1-44.7-29.6
		C97.9,217.4,95.2,209.9,107.1,212.5z"/>
	<path class="st5" d="M141.3,289.2c-3.9-4-7.9-7.9-11.8-11.9c-4.7-6.2-9.5-12.4-14.9-19.5c13.5-0.2,24.1,4.1,30.7,14.7
		C148.8,278.2,150.9,285.6,141.3,289.2z"/>
</g>
<path class="st5" d="M250,163.3c-0.4,1.2-0.4,2.1-0.7,2.3c-12.7,5.8-20.8-7.4-31.9-8c-6-0.3-6.8-3.9-5.6-8.7
	c0.1-0.6,0.2-1.3,0.6-1.7c5.7-6.1,11.5-1.5,16.6,0.7C237.2,151.4,246.2,154.4,250,163.3z"/>
</svg>
