<!-- Generator: Adobe Illustrator 22.0.1, SVG Export Plug-In  -->
<svg version="1.1"
	 xmlns="http://www.w3.org/2000/svg" xmlns:xlink="http://www.w3.org/1999/xlink" xmlns:a="http://ns.adobe.com/AdobeSVGViewerExtensions/3.0/"
	 x="0px" y="0px" width="2732px" height="415px" viewBox="0 0 2732 415" style="enable-background:new 0 0 2732 415;"
	 xml:space="preserve">
<style type="text/css">
	.st0{fill:url(#SVGID_1_);}
	.st1{fill:url(#SVGID_2_);}
</style>
<defs>
</defs>
<linearGradient id="SVGID_1_" gradientUnits="userSpaceOnUse" x1="0" y1="207.49" x2="2732" y2="207.49">
	<stop  offset="0" style="stop-color:#7B489C"/>
	<stop  offset="0.25" style="stop-color:#EE2B28"/>
	<stop  offset="0.5" style="stop-color:#7B489C"/>
	<stop  offset="0.75" style="stop-color:#EE2B28"/>
	<stop  offset="1" style="stop-color:#EE2B28"/>
</linearGradient>
<path class="st0" d="M2389.3,41.1C2305.7,61.2,2219.2,82,2049,82s-256.7-20.8-340.3-40.8C1624.4,20.9,1537.3,0,1366,0
	s-258.4,20.9-342.7,41.1C939.7,61.2,853.2,82,683,82S426.3,61.2,342.7,41.1C258.4,20.9,171.3,0,0,0v8v2v405h1366h1366V10V5V0
	C2560.7,0,2473.6,20.9,2389.3,41.1z"/>
</svg>
